<svg width="779" height="412" viewBox="0 0 779 412" fill="none" xmlns="http://www.w3.org/2000/svg">
<g clip-path="url(#clip0)">
<path d="M410.193 48.5896L230.595 49.3103C226.949 49.3297 223.46 50.7938 220.893 53.3818C218.326 55.9697 216.89 59.4701 216.9 63.1154L217.261 153.105L244.901 152.994C246.922 152.98 248.914 153.483 250.687 154.454C252.46 155.425 253.956 156.832 255.033 158.543L264.674 173.755L273.893 188.288L275.623 191.021L286.17 207.649L286.291 207.838L424.58 207.283L423.998 62.2843C423.979 58.6391 422.515 55.1503 419.927 52.5831C417.339 50.0158 413.838 48.5797 410.193 48.5896V48.5896Z" fill="#3A0EEC"/>
<path d="M384.239 115.039L246.71 115.591C244.135 115.601 241.669 116.634 239.855 118.462C238.042 120.291 237.029 122.764 237.039 125.34C237.049 127.915 238.082 130.381 239.91 132.194C241.739 134.008 244.213 135.021 246.788 135.011L384.317 134.459C386.892 134.448 389.357 133.416 391.171 131.587C392.985 129.759 393.998 127.285 393.987 124.71C393.977 122.135 392.944 119.669 391.116 117.855C389.288 116.042 386.814 115.029 384.239 115.039V115.039Z" fill="white"/>
<path d="M335.574 82.6308L246.585 82.9879C244.226 82.9974 241.967 83.9436 240.306 85.6184C238.644 87.2933 237.716 89.5595 237.726 91.9186C237.735 94.2776 238.681 96.5364 240.356 98.1978C242.031 99.8592 244.297 100.787 246.656 100.778L335.646 100.421C338.005 100.411 340.263 99.465 341.925 97.7902C343.586 96.1154 344.514 93.8492 344.505 91.4901C344.495 89.131 343.549 86.8723 341.874 85.2109C340.2 83.5494 337.933 82.6214 335.574 82.6308Z" fill="white"/>
<path d="M397.578 159.401C396.789 157.735 395.543 156.328 393.984 155.344C392.425 154.36 390.618 153.841 388.775 153.846L251.246 154.398C251.036 154.399 250.836 154.41 250.626 154.421C252.425 155.394 253.942 156.814 255.033 158.543L264.674 173.755L388.853 173.256C390.486 173.25 392.091 172.832 393.519 172.04C394.947 171.248 396.153 170.108 397.023 168.726C397.893 167.344 398.4 165.765 398.497 164.135C398.594 162.505 398.278 160.877 397.578 159.401V159.401Z" fill="white"/>
<path d="M508.053 125.698L494.031 120.284L424.123 93.3241L340.482 61.0694C337.078 59.7639 333.295 59.8615 329.962 61.3408C326.63 62.8201 324.019 65.5603 322.704 68.9608L319.814 76.4625L312.936 94.2802L302.94 120.211L295.438 139.661L289.816 154.243L282.314 173.684L276.682 188.276L276.524 188.697L275.623 191.021L286.17 207.649L286.291 207.838L480.399 207.059C482.181 207.05 483.943 207.441 485.553 208.203C487.164 208.965 488.584 210.079 489.707 211.462L490.519 209.379L500.436 183.679L515.935 143.486C517.243 140.082 517.148 136.297 515.671 132.963C514.193 129.628 511.454 127.016 508.053 125.698V125.698Z" fill="#6B62FF"/>
<path d="M431.733 125.744L424.241 122.854L348.704 93.7267C346.501 92.8844 344.055 92.9476 341.898 93.9023C339.742 94.8571 338.051 96.6259 337.194 98.8229C336.35 101.027 336.414 103.475 337.371 105.632C338.328 107.789 340.1 109.479 342.3 110.333L367.249 119.952L398.107 131.849L424.318 141.964L425.329 142.35C427.53 143.194 429.977 143.131 432.131 142.173C434.285 141.216 435.971 139.443 436.82 137.243C437.668 135.043 437.609 132.597 436.655 130.441C435.701 128.285 433.931 126.596 431.733 125.744V125.744Z" fill="white"/>
<path d="M462.048 184.263L424.429 169.753L397.578 159.401L383.235 153.869L345.877 139.458L333.738 134.777C331.474 133.903 328.964 133.909 326.704 134.794C324.444 135.679 322.597 137.378 321.527 139.556C321.409 139.807 321.29 140.067 321.191 140.338C320.732 141.527 320.511 142.794 320.542 144.068C320.574 145.343 320.855 146.598 321.372 147.763C321.888 148.928 322.629 149.981 323.552 150.859C324.475 151.738 325.562 152.427 326.751 152.885L329.856 154.083L379.653 173.293L424.513 190.593L455.061 202.381C456.184 202.815 457.379 203.034 458.583 203.027C460.848 203.022 463.04 202.225 464.779 200.774C466.518 199.323 467.695 197.31 468.106 195.083C468.517 192.856 468.137 190.555 467.03 188.579C465.924 186.603 464.162 185.076 462.048 184.263L462.048 184.263Z" fill="white"/>
<path d="M424.576 206.223L422.162 205.293L398.555 196.188L376.992 187.874L339.594 173.454L321.505 166.477C320.315 166.016 319.046 165.795 317.771 165.826C316.495 165.857 315.238 166.139 314.072 166.656C312.905 167.173 311.852 167.915 310.972 168.839C310.093 169.763 309.404 170.852 308.946 172.042C308.487 173.233 308.268 174.502 308.3 175.778C308.333 177.053 308.616 178.31 309.135 179.476C309.653 180.642 310.397 181.694 311.322 182.572C312.247 183.45 313.337 184.138 314.528 184.595L323.582 188.088L368.752 205.507L373.399 207.299L373.88 207.487L427.29 207.272L424.576 206.223Z" fill="white"/>
<path d="M333.35 207.459L328.703 205.668L309.282 198.176C307.926 197.651 306.468 197.438 305.018 197.552C303.567 197.667 302.162 198.107 300.904 198.839C299.647 199.571 298.571 200.577 297.755 201.782C296.94 202.986 296.406 204.359 296.193 205.798C296.099 206.397 296.065 207.003 296.09 207.609C296.088 207.672 296.092 207.736 296.101 207.799L333.841 207.647L333.35 207.459Z" fill="white"/>
<g filter="url(#filter0_i)">
<path d="M373.4 207.313L368.752 205.522L296.193 205.813C296.099 206.412 296.065 207.018 296.09 207.623L286.17 207.663L286.291 207.853L373.88 207.501L373.4 207.313ZM373.4 207.313L286.17 207.663L286.291 207.853L373.88 207.501L373.4 207.313ZM373.4 207.313L286.17 207.663L286.291 207.853L373.88 207.501L373.4 207.313ZM373.88 207.501L373.4 207.313L286.17 207.663L286.291 207.853L373.88 207.501ZM199.675 408.437C196.51 408.445 193.471 407.198 191.224 404.969C188.977 402.74 187.705 399.711 187.688 396.546L186.759 165.195C186.749 162.028 187.996 158.987 190.225 156.738C192.454 154.489 195.485 153.216 198.651 153.198L217.261 153.123L217.253 151.123L198.643 151.198C194.947 151.22 191.409 152.706 188.807 155.331C186.204 157.957 184.749 161.506 184.759 165.203L185.688 396.554C185.702 399.228 186.484 401.842 187.941 404.084C189.399 406.326 191.47 408.102 193.908 409.201L370.087 408.494C369.926 408.254 369.765 408.005 369.604 407.756L199.675 408.437ZM490.519 209.393C489.215 208.02 487.643 206.929 485.902 206.186C484.16 205.444 482.285 205.065 480.391 205.074L287.393 205.848L276.524 188.713L276.262 188.294L267.044 173.762L256.719 157.485C255.453 155.496 253.705 153.86 251.638 152.729C249.57 151.597 247.25 151.007 244.893 151.012L198.643 151.198C194.947 151.22 191.409 152.706 188.807 155.331C186.204 157.957 184.749 161.506 184.759 165.203L185.688 396.554C185.702 399.228 186.484 401.842 187.941 404.084C189.399 406.326 191.47 408.102 193.908 409.201C195.721 410.026 197.692 410.448 199.683 410.437L481.211 409.308C483.206 409.302 485.177 408.865 486.986 408.024C489.416 406.907 491.472 405.114 492.912 402.86C494.351 400.607 495.113 397.987 495.105 395.313L494.398 218.967C494.386 215.395 492.996 211.966 490.519 209.393V209.393ZM493.105 395.321C493.112 398.487 491.864 401.527 489.632 403.775C487.401 406.022 484.37 407.292 481.203 407.308L199.675 408.437C196.51 408.445 193.471 407.198 191.224 404.969C188.977 402.74 187.705 399.711 187.688 396.546L186.759 165.195C186.749 162.028 187.996 158.987 190.225 156.738C192.454 154.489 195.485 153.216 198.651 153.198L244.901 153.012C246.922 152.999 248.914 153.501 250.687 154.472C252.46 155.443 253.956 156.851 255.033 158.561L264.674 173.772L273.893 188.304L275.624 191.037L286.17 207.663L286.291 207.853L480.399 207.074C483.568 207.064 486.611 208.311 488.861 210.543C491.11 212.774 492.382 215.807 492.398 218.975L493.105 395.321ZM373.4 207.313L286.17 207.663L286.291 207.853L373.88 207.501L373.4 207.313ZM373.4 207.313L286.17 207.663L286.291 207.853L373.88 207.501L373.4 207.313ZM373.4 207.313L286.17 207.663L286.291 207.853L373.88 207.501L373.4 207.313ZM373.4 207.313L368.752 205.522L287.393 205.848L276.524 188.713L275.624 191.037L286.17 207.663L286.291 207.853L373.88 207.501L373.4 207.313Z" fill="#47510C"/>
</g>
<path d="M703.998 408.154C703.999 408.419 703.894 408.673 703.707 408.861C703.521 409.049 703.267 409.156 703.002 409.158L-10.992 412.023C-11.2572 412.024 -11.512 411.919 -11.7003 411.733C-11.8885 411.546 -11.9949 411.292 -11.996 411.027C-11.9971 410.761 -11.8927 410.507 -11.7059 410.318C-11.5192 410.13 -11.2652 410.024 -11 410.023L702.994 407.158C703.259 407.157 703.514 407.262 703.702 407.449C703.89 407.635 703.996 407.889 703.998 408.154V408.154Z" fill="#47510C"/>
<path d="M115.345 191.371L115.836 190.489C121.016 181.194 120.11 166.094 118.438 155.064C117.037 145.826 117.013 129.535 117.239 117.496C117.291 113.432 118.724 109.507 121.304 106.366C123.883 103.226 127.455 101.057 131.431 100.217C143.773 97.5971 158.936 96.9917 166.876 96.8636L166.884 97.405L166.876 96.8636C169.033 96.8464 171.111 97.6753 172.664 99.1727C174.217 100.67 175.122 102.717 175.183 104.873C175.477 117.836 175.497 141.477 172.33 154.173C167.631 173.018 175.149 185.78 175.226 185.907L175.679 186.658L115.345 191.371Z" fill="#00B6F0"/>
<path d="M90.9474 247.817C92.2666 247.178 93.4299 246.258 94.3552 245.122C95.2805 243.985 95.9454 242.66 96.303 241.239C96.6606 239.817 96.7022 238.335 96.4249 236.896C96.1476 235.457 95.5582 234.096 94.6981 232.909L117.217 134L99.8925 134.07L80.057 231.02C78.1594 232.597 76.9061 234.816 76.5347 237.255C76.1633 239.694 76.6996 242.185 78.042 244.256C79.3844 246.326 81.4395 247.832 83.8181 248.488C86.1966 249.145 88.7333 248.906 90.9474 247.817Z" fill="#FFB8B8"/>
<path d="M129.004 101.497C129.004 101.497 105.107 97.6761 103.016 116.092C100.924 134.508 99.841 134.513 99.841 134.513C99.841 134.513 117.153 131.195 121.501 135.509C125.85 139.822 129.004 101.497 129.004 101.497Z" fill="#20E6E6"/>
<path d="M147.318 35.7242C141.15 30.8389 139.497 21.3692 143.036 14.342C146.575 7.31475 154.622 3.05731 162.485 3.34129C170.348 3.62527 177.774 8.10906 182.354 14.5065C188.788 23.4931 190.181 36.0136 198.717 43.035C206.426 49.3769 217.433 49.1502 227.401 48.6032C230.761 48.4188 234.229 48.2068 237.239 46.7015C240.249 45.1963 242.7 42.0372 242.298 38.6963C244.818 42.6511 243.388 48.216 240.04 51.5009C236.693 54.7858 231.914 56.1755 227.258 56.7399C219.044 57.6366 210.739 56.3783 203.159 53.0888C195.579 49.7993 188.987 44.5922 184.031 37.9803C180.543 33.2089 177.844 27.6472 173.07 24.1626C168.296 20.6781 160.358 20.4661 157.457 25.6153C156.022 28.1621 156.176 31.3487 154.858 33.9577C153.539 36.5667 149.229 37.9878 147.938 35.3648" fill="#2F2E41"/>
<path d="M146.588 87.9449C163.156 87.8784 176.534 74.3931 176.467 57.8247C176.401 41.2563 162.915 27.8789 146.347 27.9454C129.779 28.0118 116.401 41.4971 116.468 58.0655C116.534 74.6339 130.019 88.0114 146.588 87.9449Z" fill="#2F2E41"/>
<path d="M146.416 90.294C159.981 90.2396 170.933 79.1992 170.878 65.6346C170.824 52.07 159.784 41.1179 146.219 41.1723C132.654 41.2268 121.702 52.2672 121.757 65.8317C121.811 79.3963 132.851 90.3484 146.416 90.294Z" fill="#FFB8B8"/>
<path d="M123.85 47.7846C127.191 48.5013 126.121 54.1052 128.768 56.2666C131.155 58.2163 134.573 56.1876 137.565 55.4462C141.342 54.5101 145.305 55.8433 148.802 57.5491C152.3 59.2549 155.674 61.3758 159.485 62.1617C163.297 62.9477 167.807 62.0265 169.929 58.7644C171.958 55.6453 171.189 51.4532 169.579 48.0989C167.577 43.9285 164.447 40.402 160.543 37.9191C156.64 35.4363 152.119 34.0961 147.493 34.0506C142.867 34.005 138.321 35.2559 134.369 37.6615C130.418 40.067 127.219 43.5312 125.135 47.6614" fill="#2F2E41"/>
<path d="M144.452 291.169L138.772 303.168L89.79 286.971L98.172 269.262L144.452 291.169Z" fill="#FFB8B8"/>
<path d="M164.665 98.52C164.665 98.52 184.142 95.1934 192.839 103.821C201.536 112.449 205.876 114.597 205.876 114.597C205.876 114.597 186.43 125.503 194.048 135.218C194.048 135.218 173.436 125.555 170.201 128.816C166.965 132.078 164.665 98.52 164.665 98.52Z" fill="#38DBFF"/>
<path d="M233.612 145.542L195.225 109.521L184.947 124.032L210.878 146.667L177.099 173.713C176.854 173.698 176.61 173.678 176.361 173.679C174.275 173.685 172.236 174.292 170.487 175.427C168.737 176.562 167.352 178.177 166.497 180.079C165.641 181.981 165.351 184.088 165.663 186.15C165.974 188.212 166.872 190.141 168.251 191.706C169.629 193.27 171.429 194.405 173.435 194.973C175.442 195.542 177.569 195.52 179.564 194.911C181.558 194.302 183.335 193.131 184.681 191.539C186.027 189.946 186.887 188 187.156 185.932L187.263 186.038L233.612 145.542Z" fill="#FFB8B8"/>
<path d="M132.546 393.563L159.368 394.361L158.889 410.473L117.187 409.233L117.223 408.001C117.341 404.055 119.021 400.316 121.895 397.609C124.768 394.901 128.6 393.446 132.546 393.563Z" fill="#2F2E41"/>
<path d="M156.412 398.067L143.144 397.673L142.377 346.031L157.934 346.887L156.412 398.067Z" fill="#FFB8B8"/>
<path d="M176.91 181.847C176.91 181.847 136.264 171.723 117.918 186.956L107.751 216.774L66.8393 275.41L126.536 310.903L137.256 283.79L111.216 270.901L142.509 243.705L137.668 386.655L158.254 389.821C158.254 389.821 203.023 213.144 176.91 181.847Z" fill="#2F2E41"/>
<path d="M130.76 311.23L142.241 286.976L156.811 293.873L138.96 331.582L137.846 331.055C134.277 329.365 131.526 326.328 130.197 322.61C128.868 318.892 129.071 314.798 130.76 311.23V311.23Z" fill="#2F2E41"/>
</g>
<defs>
<filter id="filter0_i" x="184.703" y="150.012" width="310.458" height="264.481" filterUnits="userSpaceOnUse" color-interpolation-filters="sRGB">
<feFlood flood-opacity="0" result="BackgroundImageFix"/>
<feBlend mode="normal" in="SourceGraphic" in2="BackgroundImageFix" result="shape"/>
<feColorMatrix in="SourceAlpha" type="matrix" values="0 0 0 0 0 0 0 0 0 0 0 0 0 0 0 0 0 0 127 0" result="hardAlpha"/>
<feOffset dy="4"/>
<feGaussianBlur stdDeviation="2"/>
<feComposite in2="hardAlpha" operator="arithmetic" k2="-1" k3="1"/>
<feColorMatrix type="matrix" values="0 0 0 0 0 0 0 0 0 0 0 0 0 0 0 0 0 0 0.25 0"/>
<feBlend mode="normal" in2="shape" result="effect1_innerShadow"/>
</filter>
<clipPath id="clip0">
<rect width="777.001" height="407.998" fill="white" transform="translate(0.18454 3.56059) rotate(-0.229913)"/>
</clipPath>
</defs>
</svg>
